<svg xmlns="http://www.w3.org/2000/svg" viewBox="0 0 100 100">
  <rect width="100" height="100" fill="#294A3A" />
  <svg x="25" y="25" width="50" height="50" viewBox="0 0 24 24" fill="none" stroke="#FCFBF8" stroke-width="1.7" stroke-linecap="round" stroke-linejoin="round">
    <path d="M12 7v14" />
    <path d="M3 18V5a2 2 0 0 1 2-2h4a3 3 0 0 1 3 3v15a3 3 0 0 0-3-3H5a2 2 0 0 0-2 2Z" />
    <path d="M21 18V5a2 2 0 0 0-2-2h-4a3 3 0 0 0-3 3v15a3 3 0 0 1 3-3h4a2 2 0 0 1 2 2Z" />
    <path d="m16 10 2 2 4-4" />
  </svg>
</svg>